/* XPM */
static char *aabd9867a199432ae3017f4008f00fd5[] = {
/* columns rows colors chars-per-pixel */
"64 64 187 2 ",
"   c black",
".  c #010000",
"X  c #020000",
"o  c #030000",
"O  c #040000",
"+  c #050000",
"@  c #060000",
"#  c #060101",
"$  c #070101",
"%  c #080101",
"&  c #090101",
"*  c #0A0101",
"=  c #0B0101",
"-  c #0C0101",
";  c #0D0101",
":  c #0E0101",
">  c #0F0101",
",  c #100101",
"<  c #110101",
"1  c #130202",
"2  c #140202",
"3  c #150202",
"4  c #160202",
"5  c #180202",
"6  c #190202",
"7  c #1A0202",
"8  c #1B0202",
"9  c #1C0202",
"0  c #1D0202",
"q  c #200303",
"w  c #210303",
"e  c #220303",
"r  c #250303",
"t  c #260303",
"y  c #270303",
"u  c #280303",
"i  c #290303",
"p  c #2A0303",
"a  c #2B0303",
"s  c #2B0404",
"d  c #2C0404",
"f  c #2D0404",
"g  c #2E0404",
"h  c #2F0404",
"j  c #300404",
"k  c #310404",
"l  c #320404",
"z  c #330404",
"x  c #360404",
"c  c #370505",
"v  c #380505",
"b  c #390505",
"n  c #3A0505",
"m  c #3B0505",
"M  c #3C0505",
"N  c #3D0505",
"B  c #3F0505",
"V  c #410505",
"C  c #420505",
"Z  c #430505",
"A  c #430606",
"S  c #440606",
"D  c #450606",
"F  c #460606",
"G  c #490606",
"H  c #4A0606",
"J  c #4C0606",
"K  c #4D0606",
"L  c #4F0707",
"P  c #500707",
"I  c #510707",
"U  c #540707",
"Y  c #550707",
"T  c #570707",
"R  c #580707",
"E  c #5A0707",
"W  c #5B0808",
"Q  c #5C0808",
"!  c #5F0808",
"~  c #600808",
"^  c #620808",
"/  c #630808",
"(  c #660808",
")  c #670808",
"_  c #680909",
"`  c #6C0909",
"'  c #6D0909",
"]  c #6E0909",
"[  c #6F0909",
"{  c #710909",
"}  c #720909",
"|  c #740A0A",
" . c #750A0A",
".. c #770A0A",
"X. c #780A0A",
"o. c #790A0A",
"O. c #7A0A0A",
"+. c #7E0A0A",
"@. c #7F0A0A",
"#. c #800B0B",
"$. c #810B0B",
"%. c #820B0B",
"&. c #830B0B",
"*. c #870B0B",
"=. c #880B0B",
"-. c #890B0B",
";. c #8A0B0B",
":. c #8B0B0B",
">. c #8C0C0C",
",. c #8E0C0C",
"<. c #8F0C0C",
"1. c #900C0C",
"2. c #920C0C",
"3. c #940C0C",
"4. c #950C0C",
"5. c #960C0C",
"6. c #990D0D",
"7. c #9A0D0D",
"8. c #9B0D0D",
"9. c #9C0D0D",
"0. c #9E0D0D",
"q. c #9F0D0D",
"w. c #A20D0D",
"e. c #A30D0D",
"r. c #A40D0D",
"t. c #A50E0E",
"y. c #A60E0E",
"u. c #A70E0E",
"i. c #A80E0E",
"p. c #A90E0E",
"a. c #AA0E0E",
"s. c #AB0E0E",
"d. c #AE0E0E",
"f. c #AF0E0E",
"g. c #B10F0F",
"h. c #B40F0F",
"j. c #B50F0F",
"k. c #B60F0F",
"l. c #B70F0F",
"z. c #BB0F0F",
"x. c #BC0F0F",
"c. c #BD1010",
"v. c #BE1010",
"b. c #BF1010",
"n. c #C01010",
"m. c #C11010",
"M. c #C21010",
"N. c #C51010",
"B. c #C61010",
"V. c #C71010",
"C. c #C91010",
"Z. c #C91111",
"A. c #CA1111",
"S. c #CB1111",
"D. c #CC1111",
"F. c #CD1111",
"G. c #CE1111",
"H. c #CF1111",
"J. c #D01111",
"K. c #D11111",
"L. c #D21111",
"P. c #D31111",
"I. c #D41111",
"U. c #D51212",
"Y. c #D61212",
"T. c #D71212",
"R. c #D81212",
"E. c #D91212",
"W. c #DA1212",
"Q. c #DB1212",
"!. c #DC1212",
"~. c #DF1212",
"^. c #E01212",
"/. c #E11212",
"(. c #E11313",
"). c #E21313",
"_. c #E31313",
"`. c #E41313",
"'. c #E51313",
"]. c #E61313",
"[. c #E71313",
"{. c #E81313",
"}. c #E91313",
"|. c #EA1313",
" X c #EB1313",
".X c #EC1313",
"XX c None",
/* pixels */
"XXXXXXXXXXXXXXXXXXXXXXXXXXXXXXXXXXXXXXXXXXXXXXXXXX                            XXXXXXXXXXXXXXXXXXXXXXXXXXXXXXXXXXXXXXXXXXXXXXXXXX",
"XXXXXXXXXXXXXXXXXXXXXXXXXXXXXXXXXXXXXXXXXX                                          XXXXXXXXXXXXXXXXXXXXXXXXXXXXXXXXXXXXXXXXXXXX",
"XXXXXXXXXXXXXXXXXXXXXXXXXXXXXXXXXXXXXX                                                    XXXXXXXXXXXXXXXXXXXXXXXXXXXXXXXXXXXXXX",
"XXXXXXXXXXXXXXXXXXXXXXXXXXXXXXXXXX                                                            XXXXXXXXXXXXXXXXXXXXXXXXXXXXXXXXXX",
"XXXXXXXXXXXXXXXXXXXXXXXXXXXXXX                                                                    XXXXXXXXXXXXXXXXXXXXXXXXXXXXXX",
"XXXXXXXXXXXXXXXXXXXXXXXXXXXX                                                                        XXXXXXXXXXXXXXXXXXXXXXXXXXXX",
"XXXXXXXXXXXXXXXXXXXXXXXX                                                                                XXXXXXXXXXXXXXXXXXXXXXXX",
"XXXXXXXXXXXXXXXXXXXXXX                                                                                    XXXXXXXXXXXXXXXXXXXXXX",
"XXXXXXXXXXXXXXXXXXXX                              2 T E E E E Q g                                           XXXXXXXXXXXXXXXXXXXX",
"XXXXXXXXXXXXXXXXXX                              O #.[.{.{.{.{..X|                                             XXXXXXXXXXXXXXXXXX",
"XXXXXXXXXXXXXXXX                                Z W.{.[.[.[.[.{.| 2 g g g g g s g g t                           XXXXXXXXXXXXXXXX",
"XXXXXXXXXXXXXX                                ; a.|.[.[.[.[.[.{.r.k.W.W.W.I.W.W.W.W.I.&.t                         XXXXXXXXXXXXXX",
"XXXXXXXXXXXX                                  [ '.|.'.'.[.[.[.[.|.|.'.|.|.'.|.|.'.|.|.|.F.~                       XXXXXXXXXXXXXX",
"XXXXXXXXXXXX                                H J.|.'.'.|.[.[.[.[.'.'.|.'.'.'.k.~.|.'.'.|.|.~.U                       XXXXXXXXXXXX",
"XXXXXXXXXX                                Z F.|.'.|.|.'.[.[.[.[.|.|.'.'.|.9.2 [ ).|.'.'.'.|.B.s                       XXXXXXXXXX",
"XXXXXXXX                                H S.|.|.'.'.|.'.[.[.[.[.'.'.|.|.g.6   O >.|.|.'.'.|.|.5.O                       XXXXXXXX",
"XXXXXXXX                            9 +.W.{.[.[.{.[.[.[.[.[.[.[.'.|.|.M.g       w v.|.'.|.'.'.W.l                       XXXXXXXX",
"XXXXXX                          O H g.{.[.[.[.[.{.[.[.[.[.[.[.[.|.|.I.S           ( |.'.'.'.|.|.o.                        XXXXXX",
"XXXXXX                      O v 1.~.{.[.[.[.{.[.M.W.{.[.[.[.[.[.'.)._             w S.|.|.'.'.|.9.                        XXXXXX",
"XXXX                      6 +.W.{.{.{.{.{.{.S.( M I.{.[.[.[.[.[.'.&.O             O w.|.|.'.|.'.M.2                         XXXX",
"XXXX                u S Q j.{.{.[.[.{.{.I. .e   Q [.[.[.[.[.{.{.u.;                 %.|.'.'.|.|.J.t                         XXXX",
"XX                  ;.[.{.{.{.{.{.[._.a.M       +..X[.[.[.[.{._.T                   T '.|.'.'.|.W.g                         XXXX",
"XX                  v Q E E E E E T Z 2       O r..X[.[.[.[..X9.=                   S ).'.|.'.|.W.g                           XX",
"XX                                            u F.{.[.[.[.{.W.M                     Z ).'.|.'.|.I.g                           XX",
"XX                                            ;.{.{.[.[.[.{.5.O                     ~ '.|.'.|.'.I.g                           XX",
"                                            a J.{.{.[.[.[._.P                     ; k.|.'.|.'.|.Y.s                           XX",
"                                            >..X[.[.[.[.{.W.g                     [ '.|.'.|.'.|.9.=                             ",
"                                          u J.{.[.[.[.[.{.d.=                   L I.|.'.|.'.|.W.A                               ",
"                                          ;.{.{.[.[.[.[.{.#.6 2               S F.|.'.'.'.'.'. .                                ",
"                                        9 B.{.[.[.[.[.[.{.I.F.x.U           W J.|.|.'.|.|.|.-.=                                 ",
"                                        o.{.{.[.[.[.[.[.{.{.{.{.I.1.S w 9  .W.|.'.'.'.|.).%.<                                   ",
"                                      2 v.{.[.[.[.[.[.[.[.[.{.[.|..X).F.S.'.|.'.|.|.|.W.| O                                     ",
"                                      E [.[.[.[.|.'.'.|.'.|.'.'.~.W.W.W.W.W.W.I.W.F.w.S                                         ",
"                                    O w.{.[.[.[.'.|.'.'.'.'.|._.W s g g g s g g g e O                                           ",
"                                    y F.{.{.[.[.'.|.'.|.|.'.|.'.Q                                                               ",
"                                    | {.[.[.[.[.|.'.|.'.'.|.'.|.a.=                                                             ",
"                                  ; j.{.[.[.[.[.'.).I.|.|.'.'.|.F.e                                                             ",
"                                  M ~.{.[.[.[.[.|.a.| '.'.|.|.'._.L                                                             ",
"                                  >.{.{.[.[.{.{._.L v _.|.'.|.'..X6.                                                          XX",
"XX                              M I.{.[.[.[.{.{.w.= ; j.|.'.'.|.{.J.s                                                         XX",
"XX                            ; r..X'.'.|.'.|.W.Z     [ '.'.'.'.{.{.|                                                         XX",
"XX                            T ).|.|.'.'.|.'.o.O     g I.|.|.'.{.{.B.e                                                       XX",
"XXXX                        9 v.|.'.|.|.[.{.M.6       O -.|.'.|.[.[.{.(                                                     XXXX",
"XXXX                         .{.'.|.'.'.{.W.L           l I.|.'.[.[.[.S.l                                                   XXXX",
"XXXX                      M J.{.[.[.{.{.[. .            O :.{.{.[.[.[.{.a.2                                               XXXXXX",
"XXXXXX                  < 9..X[.[.{.{.{.r.<               6 j.{.[.[.[.[.{.*.=                                             XXXXXX",
"XXXXXX                  | [.[.[.[.[.{.F.s                   z J.{.[.[.[.{._.6.6                                         XXXXXXXX",
"XXXXXXXX              v J.[.[.[.[.{._.~                       L B.{.[.[.[.{.{.5.9                                       XXXXXXXX",
"XXXXXXXX              5..X[.[.[.[.{.5.O                         l B.{.{.'.|.|.'.z.~ g ;                               XXXXXXXXXX",
"XXXXXXXXXX          O w.[._._._._.v.e                             z r._.|.'.|.|.|.|.I.a.1.>.1.1.1.v                   XXXXXXXXXX",
"XXXXXXXXXXXX          l Z Z Z Z Z s                                 = S  .v.F.S.S.S.F.F.J.F.J.F.F.U                 XXXXXXXXXXXX",
"XXXXXXXXXXXX                                                              2 9 9 9 9 9 9 9 9 9 9 9 ;               XXXXXXXXXXXXXX",
"XXXXXXXXXXXXXX                                                                                                    XXXXXXXXXXXXXX",
"XXXXXXXXXXXXXXXX                                                                                                XXXXXXXXXXXXXXXX",
"XXXXXXXXXXXXXXXXXX                                                                                            XXXXXXXXXXXXXXXXXX",
"XXXXXXXXXXXXXXXXXXXX                                                                                        XXXXXXXXXXXXXXXXXXXX",
"XXXXXXXXXXXXXXXXXXXXXX                                                                                    XXXXXXXXXXXXXXXXXXXXXX",
"XXXXXXXXXXXXXXXXXXXXXXXXXX                                                                            XXXXXXXXXXXXXXXXXXXXXXXXXX",
"XXXXXXXXXXXXXXXXXXXXXXXXXXXX                                                                        XXXXXXXXXXXXXXXXXXXXXXXXXXXX",
"XXXXXXXXXXXXXXXXXXXXXXXXXXXXXX                                                                  XXXXXXXXXXXXXXXXXXXXXXXXXXXXXXXX",
"XXXXXXXXXXXXXXXXXXXXXXXXXXXXXXXXXX                                                          XXXXXXXXXXXXXXXXXXXXXXXXXXXXXXXXXXXX",
"XXXXXXXXXXXXXXXXXXXXXXXXXXXXXXXXXXXXXX                                                  XXXXXXXXXXXXXXXXXXXXXXXXXXXXXXXXXXXXXXXX",
"XXXXXXXXXXXXXXXXXXXXXXXXXXXXXXXXXXXXXXXXXXXX                                        XXXXXXXXXXXXXXXXXXXXXXXXXXXXXXXXXXXXXXXXXXXX",
"XXXXXXXXXXXXXXXXXXXXXXXXXXXXXXXXXXXXXXXXXXXXXXXXXXXX                        XXXXXXXXXXXXXXXXXXXXXXXXXXXXXXXXXXXXXXXXXXXXXXXXXXXX"
};
