/* XPM */
static char *_69358cb4ac8481af42f632348cffb5d[] = {
/* columns rows colors chars-per-pixel */
"32 32 135 2 ",
"   c black",
".  c #010000",
"X  c #020000",
"o  c #030000",
"O  c #040000",
"+  c #050000",
"@  c #060101",
"#  c #090101",
"$  c #0A0101",
"%  c #0D0101",
"&  c #100101",
"*  c #110101",
"=  c #120101",
"-  c #140202",
";  c #160202",
":  c #170202",
">  c #180202",
",  c #190202",
"<  c #1A0202",
"1  c #1F0303",
"2  c #200303",
"3  c #210303",
"4  c #220303",
"5  c #240303",
"6  c #250303",
"7  c #280303",
"8  c #2A0303",
"9  c #2D0404",
"0  c #2E0404",
"q  c #2F0404",
"w  c #300404",
"e  c #340404",
"r  c #360404",
"t  c #370505",
"y  c #380505",
"u  c #3B0505",
"i  c #430606",
"p  c #440606",
"a  c #450606",
"s  c #470606",
"d  c #4A0606",
"f  c #4B0606",
"g  c #4C0606",
"h  c #4E0606",
"j  c #500707",
"k  c #510707",
"l  c #530707",
"z  c #570707",
"x  c #580707",
"c  c #590707",
"v  c #5B0707",
"b  c #5C0808",
"n  c #600808",
"m  c #610808",
"M  c #640808",
"N  c #650808",
"B  c #670808",
"V  c #680909",
"C  c #6B0909",
"Z  c #6E0909",
"A  c #710909",
"S  c #720909",
"D  c #740A0A",
"F  c #750A0A",
"G  c #760A0A",
"H  c #780A0A",
"J  c #7A0A0A",
"K  c #7D0A0A",
"L  c #810B0B",
"P  c #820B0B",
"I  c #830B0B",
"U  c #860B0B",
"Y  c #870B0B",
"T  c #880B0B",
"R  c #8B0B0B",
"E  c #8D0C0C",
"W  c #8E0C0C",
"Q  c #920C0C",
"!  c #930C0C",
"~  c #940C0C",
"^  c #950C0C",
"/  c #960C0C",
"(  c #970C0C",
")  c #9A0D0D",
"_  c #9E0D0D",
"`  c #A00D0D",
"'  c #A20D0D",
"]  c #A70E0E",
"[  c #A80E0E",
"{  c #AD0E0E",
"}  c #AF0E0E",
"|  c #B10F0F",
" . c #B20F0F",
".. c #B40F0F",
"X. c #B60F0F",
"o. c #B80F0F",
"O. c #BD1010",
"+. c #BF1010",
"@. c #C11010",
"#. c #C21010",
"$. c #C31010",
"%. c #C41010",
"&. c #C51010",
"*. c #C61010",
"=. c #C71010",
"-. c #C91010",
";. c #C91111",
":. c #CA1111",
">. c #CB1111",
",. c #D01111",
"<. c #D11111",
"1. c #D61212",
"2. c #D81212",
"3. c #D91212",
"4. c #DA1212",
"5. c #DC1212",
"6. c #DD1212",
"7. c #DE1212",
"8. c #E01212",
"9. c #E11212",
"0. c #E11313",
"q. c #E21313",
"w. c #E31313",
"e. c #E41313",
"r. c #E51313",
"t. c #E61313",
"y. c #E71313",
"u. c #E81313",
"i. c #E91313",
"p. c #EA1313",
"a. c #EB1313",
"s. c #EC1313",
"d. c #ED1313",
"f. c #ED1414",
"g. c None",
/* pixels */
"g.g.g.g.g.g.g.g.g.g.g.                    g.g.g.g.g.g.g.g.g.g.g.",
"g.g.g.g.g.g.g.g.g.                            g.g.g.g.g.g.g.g.g.",
"g.g.g.g.g.g.g.                                    g.g.g.g.g.g.g.",
"g.g.g.g.g.g.                  @                     g.g.g.g.g.g.",
"g.g.g.g.g.              w / ) / 8                     g.g.g.g.g.",
"g.g.g.g.              % ' f.u.t.T K I I I n ;           g.g.g.g.",
"g.g.g.                B w.t.t.u.y.a.y.1.a.y.} 1           g.g.g.",
"g.g.                b 3.u.u.u.t.y.y.T y $.a.a.Q @           g.g.",
"g.g.            1 T 5.s.t.t.t.u.a.] ;   c 8.y.3.t           g.g.",
"g.          * B %.a.y. .} a.u.u.O.8     ; $.a.a.n             g.",
"g.      @ N [ 5.8.-.B ; _ a.a.8.f       @ _ a.a.K             g.",
"          q y y t 3   ; %.y.a._ #         E a.a.I             g.",
"                      B y.y.8.a         %  .a.a.K               ",
"                    ; O.a.y.%.;         V 8.a.3.i               ",
"                    n y.y.a.%.Z 3     n 3.a.y.H @               ",
"                  * ..a.y.y.y.a.%.U Q y.s.5.F #                 ",
"                  f 5.y.y.y.a.5./ I I I H a @                   ",
"                  E u.y.a.y.y.8.f                               ",
"                2 -.a.a.,.%.y.a.U                               ",
"                Z u.y.a.F F a.a.$.>                             ",
"              6 -.u.u.O.> w 3.a.y.c                           g.",
"g.          @ U u.u.7.k   @ / a.a...;                         g.",
"g.          a 3.u.u.P @     t <.a.y.U #                       g.",
"g.g.      > o.f.u. .;         c 1.a.y.U *                   g.g.",
"g.g.      g 3.5.-.u             l %.y.a. .A l l t           g.g.",
"g.g.g.    * q q 6                 1 z F F F A F g         g.g.g.",
"g.g.g.g.                                                g.g.g.g.",
"g.g.g.g.g.                                            g.g.g.g.g.",
"g.g.g.g.g.g.                                        g.g.g.g.g.g.",
"g.g.g.g.g.g.g.                                    g.g.g.g.g.g.g.",
"g.g.g.g.g.g.g.g.g.                            g.g.g.g.g.g.g.g.g.",
"g.g.g.g.g.g.g.g.g.g.g.g.                g.g.g.g.g.g.g.g.g.g.g.g."
};
