/* XPM */
static char *_3608ba9ee534311f47ef8dd10204b62[] = {
/* columns rows colors chars-per-pixel */
"16 16 85 1 ",
"  c black",
". c #010000",
"X c #020000",
"o c #030000",
"O c #040000",
"+ c #050000",
"@ c #060000",
"# c #070101",
"$ c #080101",
"% c #090101",
"& c #0B0101",
"* c #0D0101",
"= c #0E0101",
"- c #0F0101",
"; c #120101",
": c #1B0202",
"> c #1D0202",
", c #210303",
"< c #220303",
"1 c #2A0303",
"2 c #2E0404",
"3 c #300404",
"4 c #330404",
"5 c #370505",
"6 c #380505",
"7 c #3F0505",
"8 c #400505",
"9 c #410505",
"0 c #470606",
"q c #480606",
"w c #4A0606",
"e c #4D0606",
"r c #510707",
"t c #520707",
"y c #530707",
"u c #540707",
"i c #590707",
"p c #5A0707",
"a c #5B0707",
"s c #5B0808",
"d c #680909",
"f c #6D0909",
"g c #6F0909",
"h c #700909",
"j c #740A0A",
"k c #750A0A",
"l c #7B0A0A",
"z c #7C0A0A",
"x c #820B0B",
"c c #830B0B",
"v c #840B0B",
"b c #850B0B",
"n c #880B0B",
"m c #8A0B0B",
"M c #8C0B0B",
"N c #930C0C",
"B c #960C0C",
"V c #990D0D",
"C c #9F0D0D",
"Z c #A80E0E",
"A c #AA0E0E",
"S c #AD0E0E",
"D c #AF0E0E",
"F c #B00E0E",
"G c #BA0F0F",
"H c #C41010",
"J c #C81010",
"K c #C91111",
"L c #CE1111",
"P c #D21111",
"I c #D31111",
"U c #D81212",
"Y c #D91212",
"T c #DB1212",
"R c #DC1212",
"E c #DD1212",
"W c #DF1212",
"Q c #E01212",
"! c #E31313",
"~ c #E41313",
"^ c #E51313",
"/ c #E91313",
"( c #EA1313",
") c #EB1313",
"_ c None",
/* pixels */
"_____      _____",
"___   +*     ___",
"__   %mSiw9*  __",
"_   +f~(WCLm+  _",
"_ +2NJY(V*vY3  _",
"  ,hl9HJ< u!w   ",
"     t^x  vW5   ",
"    *S)GskIk+   ",
"    7W(Qdw6+    ",
"    M~AQi       ",
"   6YA1HF*      ",
"_ ;AI3 iYv;+   _",
"_ >ze  +uVht>  _",
"__        %%+ __",
"___          ___",
"_____      _____"
};
